<svg id="Layer_1" data-name="Layer 1" xmlns="http://www.w3.org/2000/svg" viewBox="0 0 500 300"><defs><style>.cls-1,.cls-3{fill:#fff;}.cls-1{stroke:#000;stroke-miterlimit:10;}.cls-2,.cls-4,.cls-5{fill:#017dfc;}.cls-3,.cls-4{font-size:103.71px;}.cls-3,.cls-4,.cls-5{font-family:Montserrat-Bold, Montserrat;font-weight:700;}.cls-5{font-size:21.51px;}</style></defs><rect class="cls-1" width="500" height="300"/><rect class="cls-2" x="204.54" y="50.13" width="241.2" height="115.92"/><rect class="cls-2" x="173.76" y="50.13" width="16.78" height="127.79"/><text class="cls-3" transform="translate(215.36 144.47)">ENS</text><text class="cls-4" transform="translate(89.13 249.27)">CLUB</text><text class="cls-5" transform="translate(379.13 191.04)">®</text><g id="B"><path class="cls-2" d="M54.26,51.14v89.52a199,199,0,0,1,17-16.8c4.53-4,9-7.45,13.2-10.56l-.24-38.16,34.32-16.56.48,109.68c16.27,1.73,31.58-4.51,39.36-16.56,1.53-2.36,8.51-13.16,4.56-26.4-.44-1.5-4.6-14.87-18.24-19.68a29.81,29.81,0,0,0-19.8.24l-.24-7.8a67.46,67.46,0,0,1,20.16-1.44c1-1.69,6.94-12.17,3-24.84-.63-2-4.09-12.42-14.88-17.88a29.55,29.55,0,0,0-13.8-3.12Z"/><path class="cls-2" d="M95.66,106.82l-.12-19a6.25,6.25,0,0,1,12,.12l.48,14a49.43,49.43,0,0,0-7.68,2.52A51.25,51.25,0,0,0,95.66,106.82Z"/><path class="cls-2" d="M55,167.9l29.4.12.36-31.08,10.68-9.12,0,40.41,12.42.09.18-56.25a114.7,114.7,0,0,0-15,10,127.09,127.09,0,0,0-17.19,16.65,171.24,171.24,0,0,0-13.68,17.64C59.13,160.82,56.75,164.79,55,167.9Z"/></g></svg>